g ID_Swansea
v -0.069582224 0.0012235012 0.019401256
v -0.06343722 0.0012235027 0.039013255
v -0.070429265 0.0012235022 0.033346254
v -0.033412278 0.0012235029 0.042471256
v -0.02211523 0.0012235028 0.040374253
v 0.01042074 0.0012235009 0.015921256
v -0.06962025 0.0012235004 0.007810255
v -0.04062426 0.0012234966 -0.040796746
v -0.07249027 0.0012234997 -0.00094674405
v -0.072416246 0.0012234984 -0.017099744
v -0.0140942335 0.0012235027 0.039712258
v -0.01990825 0.0012235029 0.041919254
v -0.02182126 0.0012235029 0.042067256
v -0.017626226 0.0012235029 0.043060254
v 0.0015807748 0.0012235028 0.040411256
v 0.012363732 0.0012235015 0.023604253
v 0.012230754 0.001223501 0.018217256
v 0.01439476 0.0012235006 0.013758255
v 0.017706752 0.0012235016 0.025900256
v 0.014747739 0.0012235015 0.023825254
v 0.015195727 0.0012235031 0.045341257
v 0.016777754 0.0012235031 0.044679254
v 0.023181736 0.0012235015 0.023957256
v 0.021892726 0.0012235031 0.04563625
v 0.05157977 0.0012235029 0.042852256
v 0.024814725 0.001223501 0.017732257
v 0.022783756 0.0012235012 0.019807257
v 0.07019675 0.0012235006 0.013401257
v 0.06867075 0.0012235006 0.012257255
v 0.073248744 0.0012235014 0.022709258
v 0.024594724 0.0012235008 0.014861256
v 0.06989174 0.0012235029 0.04231825
v 0.07858973 0.001223502 0.029271256
v 0.077926755 0.0012235027 0.038917255
v 0.06653476 0.0012234995 -0.0017817442
v 0.019869745 0.0012235006 0.011947255
v 0.070044756 0.0012234987 -0.013913744
v 0.012209773 0.0012234959 -0.04954574
v -0.029990256 0.0012234964 -0.04348274
v -0.03893125 0.0012234965 -0.042120744
v -0.02586925 0.0012234962 -0.047456745
v -0.024398267 0.0012234959 -0.05055774
v -0.02568525 0.001223496 -0.04929574
v 0.06996775 0.0012234957 -0.053283744
v 0.08049774 0.0012234976 -0.029173743
v 0.07858973 0.0012234963 -0.044967744
v 0.07416475 0.0012234985 -0.015744744
v 0.080192745 0.0012234985 -0.017041745
v 0.07691174 0.0012234986 -0.015363743
v -0.044819236 0.0012234966 -0.041716743
v -0.06917822 0.0012234974 -0.030567743
v -0.07363027 0.0012234983 -0.020006744
v -0.053211268 0.0012234963 -0.045922745
v -0.04636526 0.0012234965 -0.04326174
v -0.06884723 0.0012234967 -0.038698744
v -0.07028222 0.0012234969 -0.037962742
v -0.065793276 0.001223496 -0.04929574
v -0.05810225 0.0012234959 -0.05065774
v -0.06910425 0.0012234963 -0.045837745
v -0.06343722 -0.0012234974 0.039013255
v -0.069582224 -0.0012234987 0.019401256
v -0.070429265 -0.0012234977 0.033346254
v -0.033412278 -0.0012234969 0.042471256
v -0.02211523 -0.0012234972 0.040374253
v 0.01042074 -0.0012234991 0.015921256
v -0.06962025 -0.0012234998 0.007810255
v -0.04062426 -0.0012235033 -0.040796746
v -0.07249027 -0.0012235005 -0.00094674405
v -0.072416246 -0.0012235016 -0.017099744
v -0.044819236 -0.0012235035 -0.041716743
v -0.06917822 -0.0012235024 -0.030567743
v -0.07363027 -0.0012235019 -0.020006744
v -0.053211268 -0.0012235037 -0.045922745
v -0.04636526 -0.0012235035 -0.04326174
v -0.06884723 -0.0012235033 -0.038698744
v -0.07028222 -0.0012235033 -0.037962742
v -0.065793276 -0.001223504 -0.04929574
v -0.05810225 -0.0012235042 -0.05065774
v -0.06910425 -0.0012235037 -0.045837745
v -0.029990256 -0.0012235035 -0.04348274
v -0.03893125 -0.0012235035 -0.042120744
v 0.01439476 -0.0012234993 0.013758255
v 0.012209773 -0.001223504 -0.04954574
v -0.02586925 -0.001223504 -0.047456745
v 0.019869745 -0.0012234993 0.011947255
v -0.024398267 -0.0012235042 -0.05055774
v -0.02568525 -0.001223504 -0.04929574
v 0.06996775 -0.0012235042 -0.053283744
v 0.070044756 -0.0012235014 -0.013913744
v 0.06653476 -0.0012235005 -0.0017817442
v 0.024594724 -0.0012234991 0.014861256
v 0.06867075 -0.0012234993 0.012257255
v 0.024814725 -0.0012234987 0.017732257
v 0.07019675 -0.0012234993 0.013401257
v 0.08049774 -0.0012235024 -0.029173743
v 0.07858973 -0.0012235037 -0.044967744
v 0.07416475 -0.0012235014 -0.015744744
v 0.080192745 -0.0012235016 -0.017041745
v 0.07691174 -0.0012235014 -0.015363743
v 0.023181736 -0.0012234984 0.023957256
v 0.022783756 -0.0012234987 0.019807257
v 0.05157977 -0.0012234969 0.042852256
v 0.073248744 -0.0012234986 0.022709258
v 0.021892726 -0.0012234967 0.04563625
v 0.06989174 -0.0012234969 0.04231825
v 0.07858973 -0.0012234981 0.029271256
v 0.077926755 -0.0012234974 0.038917255
v 0.017706752 -0.0012234984 0.025900256
v 0.016777754 -0.0012234969 0.044679254
v 0.015195727 -0.0012234969 0.045341257
v 0.0015807748 -0.0012234972 0.040411256
v 0.012363732 -0.0012234986 0.023604253
v 0.014747739 -0.0012234984 0.023825254
v 0.012230754 -0.0012234987 0.018217256
v -0.0140942335 -0.0012234972 0.039712258
v -0.01990825 -0.0012234972 0.041919254
v -0.017626226 -0.0012234969 0.043060254
v -0.02182126 -0.0012234972 0.042067256
v 0.022783756 0.0012235012 0.019807257
v 0.023181736 0.0012235015 0.023957256
v 0.023181736 -0.0012234984 0.023957256
v 0.022783756 -0.0012234987 0.019807257
v -0.069582224 0.0012235012 0.019401256
v -0.070429265 0.0012235022 0.033346254
v -0.070429265 -0.0012234977 0.033346254
v -0.069582224 -0.0012234987 0.019401256
v 0.07858973 0.0012234963 -0.044967744
v 0.06996775 0.0012234957 -0.053283744
v 0.06996775 -0.0012235042 -0.053283744
v 0.07858973 -0.0012235037 -0.044967744
v 0.023181736 0.0012235015 0.023957256
v 0.017706752 0.0012235016 0.025900256
v 0.017706752 -0.0012234984 0.025900256
v 0.023181736 -0.0012234984 0.023957256
v -0.06962025 0.0012235004 0.007810255
v -0.069582224 0.0012235012 0.019401256
v -0.069582224 -0.0012234987 0.019401256
v -0.06962025 -0.0012234998 0.007810255
v 0.08049774 0.0012234976 -0.029173743
v 0.07858973 0.0012234963 -0.044967744
v 0.07858973 -0.0012235037 -0.044967744
v 0.08049774 -0.0012235024 -0.029173743
v 0.017706752 0.0012235016 0.025900256
v 0.014747739 0.0012235015 0.023825254
v 0.014747739 -0.0012234984 0.023825254
v 0.017706752 -0.0012234984 0.025900256
v -0.07249027 0.0012234997 -0.00094674405
v -0.06962025 0.0012235004 0.007810255
v -0.06962025 -0.0012234998 0.007810255
v -0.07249027 -0.0012235005 -0.00094674405
v 0.080192745 0.0012234985 -0.017041745
v 0.08049774 0.0012234976 -0.029173743
v 0.08049774 -0.0012235024 -0.029173743
v 0.080192745 -0.0012235016 -0.017041745
v 0.014747739 0.0012235015 0.023825254
v 0.012363732 0.0012235015 0.023604253
v 0.012363732 -0.0012234986 0.023604253
v 0.014747739 -0.0012234984 0.023825254
v -0.072416246 0.0012234984 -0.017099744
v -0.07249027 0.0012234997 -0.00094674405
v -0.07249027 -0.0012235005 -0.00094674405
v -0.072416246 -0.0012235016 -0.017099744
v 0.07691174 0.0012234986 -0.015363743
v 0.080192745 0.0012234985 -0.017041745
v 0.080192745 -0.0012235016 -0.017041745
v 0.07691174 -0.0012235014 -0.015363743
v 0.012363732 0.0012235015 0.023604253
v 0.012230754 0.001223501 0.018217256
v 0.012230754 -0.0012234987 0.018217256
v 0.012363732 -0.0012234986 0.023604253
v -0.07363027 0.0012234983 -0.020006744
v -0.072416246 0.0012234984 -0.017099744
v -0.072416246 -0.0012235016 -0.017099744
v -0.07363027 -0.0012235019 -0.020006744
v 0.07416475 0.0012234985 -0.015744744
v 0.07691174 0.0012234986 -0.015363743
v 0.07691174 -0.0012235014 -0.015363743
v 0.07416475 -0.0012235014 -0.015744744
v 0.012230754 0.001223501 0.018217256
v 0.01042074 0.0012235009 0.015921256
v 0.01042074 -0.0012234991 0.015921256
v 0.012230754 -0.0012234987 0.018217256
v -0.06917822 0.0012234974 -0.030567743
v -0.07363027 0.0012234983 -0.020006744
v -0.07363027 -0.0012235019 -0.020006744
v -0.06917822 -0.0012235024 -0.030567743
v 0.070044756 0.0012234987 -0.013913744
v 0.07416475 0.0012234985 -0.015744744
v 0.07416475 -0.0012235014 -0.015744744
v 0.070044756 -0.0012235014 -0.013913744
v -0.07028222 0.0012234969 -0.037962742
v -0.06917822 0.0012234974 -0.030567743
v -0.06917822 -0.0012235024 -0.030567743
v -0.07028222 -0.0012235033 -0.037962742
v 0.06653476 0.0012234995 -0.0017817442
v 0.070044756 0.0012234987 -0.013913744
v 0.070044756 -0.0012235014 -0.013913744
v 0.06653476 -0.0012235005 -0.0017817442
v -0.06884723 0.0012234967 -0.038698744
v -0.07028222 0.0012234969 -0.037962742
v -0.07028222 -0.0012235033 -0.037962742
v -0.06884723 -0.0012235033 -0.038698744
v 0.06867075 0.0012235006 0.012257255
v 0.06653476 0.0012234995 -0.0017817442
v 0.06653476 -0.0012235005 -0.0017817442
v 0.06867075 -0.0012234993 0.012257255
v -0.06910425 0.0012234963 -0.045837745
v -0.06884723 0.0012234967 -0.038698744
v -0.06884723 -0.0012235033 -0.038698744
v -0.06910425 -0.0012235037 -0.045837745
v 0.07019675 0.0012235006 0.013401257
v 0.06867075 0.0012235006 0.012257255
v 0.06867075 -0.0012234993 0.012257255
v 0.07019675 -0.0012234993 0.013401257
v -0.065793276 0.001223496 -0.04929574
v -0.06910425 0.0012234963 -0.045837745
v -0.06910425 -0.0012235037 -0.045837745
v -0.065793276 -0.001223504 -0.04929574
v 0.073248744 0.0012235014 0.022709258
v 0.07019675 0.0012235006 0.013401257
v 0.07019675 -0.0012234993 0.013401257
v 0.073248744 -0.0012234986 0.022709258
v -0.05810225 0.0012234959 -0.05065774
v -0.065793276 0.001223496 -0.04929574
v -0.065793276 -0.001223504 -0.04929574
v -0.05810225 -0.0012235042 -0.05065774
v 0.07858973 0.001223502 0.029271256
v 0.073248744 0.0012235014 0.022709258
v 0.073248744 -0.0012234986 0.022709258
v 0.07858973 -0.0012234981 0.029271256
v -0.053211268 0.0012234963 -0.045922745
v -0.05810225 0.0012234959 -0.05065774
v -0.05810225 -0.0012235042 -0.05065774
v -0.053211268 -0.0012235037 -0.045922745
v 0.077926755 0.0012235027 0.038917255
v 0.07858973 0.001223502 0.029271256
v 0.07858973 -0.0012234981 0.029271256
v 0.077926755 -0.0012234974 0.038917255
v -0.04636526 0.0012234965 -0.04326174
v -0.053211268 0.0012234963 -0.045922745
v -0.053211268 -0.0012235037 -0.045922745
v -0.04636526 -0.0012235035 -0.04326174
v 0.06989174 0.0012235029 0.04231825
v 0.077926755 0.0012235027 0.038917255
v 0.077926755 -0.0012234974 0.038917255
v 0.06989174 -0.0012234969 0.04231825
v -0.044819236 0.0012234966 -0.041716743
v -0.04636526 0.0012234965 -0.04326174
v -0.04636526 -0.0012235035 -0.04326174
v -0.044819236 -0.0012235035 -0.041716743
v 0.05157977 0.0012235029 0.042852256
v 0.06989174 0.0012235029 0.04231825
v 0.06989174 -0.0012234969 0.04231825
v 0.05157977 -0.0012234969 0.042852256
v -0.04062426 0.0012234966 -0.040796746
v -0.044819236 0.0012234966 -0.041716743
v -0.044819236 -0.0012235035 -0.041716743
v -0.04062426 -0.0012235033 -0.040796746
v 0.021892726 0.0012235031 0.04563625
v 0.05157977 0.0012235029 0.042852256
v 0.05157977 -0.0012234969 0.042852256
v 0.021892726 -0.0012234967 0.04563625
v -0.03893125 0.0012234965 -0.042120744
v -0.04062426 0.0012234966 -0.040796746
v -0.04062426 -0.0012235033 -0.040796746
v -0.03893125 -0.0012235035 -0.042120744
v 0.016777754 0.0012235031 0.044679254
v 0.021892726 0.0012235031 0.04563625
v 0.021892726 -0.0012234967 0.04563625
v 0.016777754 -0.0012234969 0.044679254
v -0.029990256 0.0012234964 -0.04348274
v -0.03893125 0.0012234965 -0.042120744
v -0.03893125 -0.0012235035 -0.042120744
v -0.029990256 -0.0012235035 -0.04348274
v 0.015195727 0.0012235031 0.045341257
v 0.016777754 0.0012235031 0.044679254
v 0.016777754 -0.0012234969 0.044679254
v 0.015195727 -0.0012234969 0.045341257
v -0.02586925 0.0012234962 -0.047456745
v -0.029990256 0.0012234964 -0.04348274
v -0.029990256 -0.0012235035 -0.04348274
v -0.02586925 -0.001223504 -0.047456745
v 0.0015807748 0.0012235028 0.040411256
v 0.015195727 0.0012235031 0.045341257
v 0.015195727 -0.0012234969 0.045341257
v 0.0015807748 -0.0012234972 0.040411256
v -0.02568525 0.001223496 -0.04929574
v -0.02586925 0.0012234962 -0.047456745
v -0.02586925 -0.001223504 -0.047456745
v -0.02568525 -0.001223504 -0.04929574
v -0.0140942335 0.0012235027 0.039712258
v 0.0015807748 0.0012235028 0.040411256
v 0.0015807748 -0.0012234972 0.040411256
v -0.0140942335 -0.0012234972 0.039712258
v -0.024398267 0.0012234959 -0.05055774
v -0.02568525 0.001223496 -0.04929574
v -0.02568525 -0.001223504 -0.04929574
v -0.024398267 -0.0012235042 -0.05055774
v -0.017626226 0.0012235029 0.043060254
v -0.0140942335 0.0012235027 0.039712258
v -0.0140942335 -0.0012234972 0.039712258
v -0.017626226 -0.0012234969 0.043060254
v 0.012209773 0.0012234959 -0.04954574
v -0.024398267 0.0012234959 -0.05055774
v -0.024398267 -0.0012235042 -0.05055774
v 0.012209773 -0.001223504 -0.04954574
v -0.01990825 0.0012235029 0.041919254
v -0.017626226 0.0012235029 0.043060254
v -0.017626226 -0.0012234969 0.043060254
v -0.01990825 -0.0012234972 0.041919254
v 0.01042074 0.0012235009 0.015921256
v 0.01439476 0.0012235006 0.013758255
v 0.01439476 -0.0012234993 0.013758255
v 0.01042074 -0.0012234991 0.015921256
v -0.02182126 0.0012235029 0.042067256
v -0.01990825 0.0012235029 0.041919254
v -0.01990825 -0.0012234972 0.041919254
v -0.02182126 -0.0012234972 0.042067256
v 0.01439476 0.0012235006 0.013758255
v 0.019869745 0.0012235006 0.011947255
v 0.019869745 -0.0012234993 0.011947255
v 0.01439476 -0.0012234993 0.013758255
v -0.02211523 0.0012235028 0.040374253
v -0.02182126 0.0012235029 0.042067256
v -0.02182126 -0.0012234972 0.042067256
v -0.02211523 -0.0012234972 0.040374253
v 0.019869745 0.0012235006 0.011947255
v 0.024594724 0.0012235008 0.014861256
v 0.024594724 -0.0012234991 0.014861256
v 0.019869745 -0.0012234993 0.011947255
v -0.033412278 0.0012235029 0.042471256
v -0.02211523 0.0012235028 0.040374253
v -0.02211523 -0.0012234972 0.040374253
v -0.033412278 -0.0012234969 0.042471256
v 0.024594724 0.0012235008 0.014861256
v 0.024814725 0.001223501 0.017732257
v 0.024814725 -0.0012234987 0.017732257
v 0.024594724 -0.0012234991 0.014861256
v -0.06343722 0.0012235027 0.039013255
v -0.033412278 0.0012235029 0.042471256
v -0.033412278 -0.0012234969 0.042471256
v -0.06343722 -0.0012234974 0.039013255
v 0.024814725 0.001223501 0.017732257
v 0.022783756 0.0012235012 0.019807257
v 0.022783756 -0.0012234987 0.019807257
v 0.024814725 -0.0012234987 0.017732257
v -0.070429265 0.0012235022 0.033346254
v -0.06343722 0.0012235027 0.039013255
v -0.06343722 -0.0012234974 0.039013255
v -0.070429265 -0.0012234977 0.033346254
v 0.06996775 0.0012234957 -0.053283744
v 0.012209773 0.0012234959 -0.04954574
v 0.012209773 -0.001223504 -0.04954574
v 0.06996775 -0.0012235042 -0.053283744
vt 0.14562988 0.018707275
vt 0.18322754 0.02961731
vt 0.17211914 0.016540527
vt 0.19104004 0.08654785
vt 0.18737793 0.10809326
vt 0.14221191 0.17089844
vt 0.12359619 0.019073486
vt 0.032196045 0.07611084
vt 0.10681152 0.013969421
vt 0.076049805 0.01473999
vt 0.18652344 0.12335205
vt 0.19042969 0.11224365
vt 0.19067383 0.10858154
vt 0.19274902 0.11651611
vt 0.18847656 0.15319824
vt 0.15686035 0.1743164
vt 0.14660645 0.17419434
vt 0.1381836 0.17858887
vt 0.16137695 0.18432617
vt 0.15734863 0.17883301
vt 0.19836426 0.17883301
vt 0.19714355 0.18188477
vt 0.15795898 0.19482422
vt 0.19921875 0.19152832
vt 0.19506836 0.24804688
vt 0.14611816 0.19824219
vt 0.15002441 0.19421387
vt 0.13964844 0.28466797
vt 0.13745117 0.28173828
vt 0.1574707 0.29003906
vt 0.14074707 0.19787598
vt 0.19470215 0.28295898
vt 0.17028809 0.30004883
vt 0.18859863 0.29833984
vt 0.11065674 0.2783203
vt 0.13500977 0.18896484
vt 0.08770752 0.2854004
vt 0.017608643 0.17687988
vt 0.027511597 0.09637451
vt 0.029754639 0.0793457
vt 0.020111084 0.10437012
vt 0.014259338 0.107299805
vt 0.016616821 0.10479736
vt 0.012756348 0.28686523
vt 0.059051514 0.3059082
vt 0.028915405 0.30273438
vt 0.084350586 0.2932129
vt 0.08215332 0.3046875
vt 0.08520508 0.29858398
vt 0.030288696 0.06817627
vt 0.050567627 0.02142334
vt 0.070495605 0.012542725
vt 0.021957397 0.052368164
vt 0.027282715 0.06524658
vt 0.035095215 0.022369385
vt 0.03643799 0.019607544
vt 0.015045166 0.028579712
vt 0.012756348 0.04324341
vt 0.021499634 0.022155762
vt 0.22485352 0.02961731
vt 0.26245117 0.018707275
vt 0.23596191 0.016540527
vt 0.21716309 0.08654785
vt 0.22070312 0.10809326
vt 0.26586914 0.17089844
vt 0.28442383 0.019073486
vt 0.37597656 0.07611084
vt 0.30126953 0.013969421
vt 0.33203125 0.01473999
vt 0.3779297 0.06817627
vt 0.35766602 0.02142334
vt 0.33764648 0.012542725
vt 0.38623047 0.052368164
vt 0.38085938 0.06524658
vt 0.37304688 0.022369385
vt 0.37158203 0.019607544
vt 0.3930664 0.028579712
vt 0.39526367 0.04324341
vt 0.38671875 0.022155762
vt 0.38061523 0.09637451
vt 0.37841797 0.0793457
vt 0.27001953 0.17858887
vt 0.390625 0.17687988
vt 0.38793945 0.10437012
vt 0.27319336 0.18896484
vt 0.39379883 0.107299805
vt 0.39160156 0.10479736
vt 0.39526367 0.28686523
vt 0.3203125 0.2854004
vt 0.29736328 0.2783203
vt 0.26733398 0.19787598
vt 0.27075195 0.28173828
vt 0.2619629 0.19824219
vt 0.26831055 0.28466797
vt 0.3491211 0.3059082
vt 0.3791504 0.30273438
vt 0.32373047 0.2932129
vt 0.32592773 0.3046875
vt 0.32299805 0.29858398
vt 0.25024414 0.19482422
vt 0.25805664 0.19421387
vt 0.21313477 0.24804688
vt 0.25048828 0.29003906
vt 0.20898438 0.19152832
vt 0.2133789 0.28295898
vt 0.23791504 0.30004883
vt 0.21960449 0.29833984
vt 0.2467041 0.18432617
vt 0.2109375 0.18188477
vt 0.20983887 0.17883301
vt 0.21972656 0.15319824
vt 0.2512207 0.1743164
vt 0.25073242 0.17883301
vt 0.2614746 0.17419434
vt 0.22167969 0.12335205
vt 0.21765137 0.11224365
vt 0.2154541 0.11651611
vt 0.21740723 0.10858154
vt 0.4855957 0.8623047
vt 0.4753418 0.8623047
vt 0.4753418 0.86816406
vt 0.4855957 0.86816406
vt 0.20300293 0.74316406
vt 0.23754883 0.74316406
vt 0.23754883 0.7373047
vt 0.20300293 0.7373047
vt 0.42358398 0.90966797
vt 0.45336914 0.90966797
vt 0.45336914 0.9038086
vt 0.42358398 0.9038086
vt 0.4753418 0.8623047
vt 0.4609375 0.8623047
vt 0.4609375 0.86816406
vt 0.4753418 0.86816406
vt 0.1743164 0.74316406
vt 0.20300293 0.74316406
vt 0.20300293 0.7373047
vt 0.1743164 0.7373047
vt 0.22070312 0.76220703
vt 0.26000977 0.76220703
vt 0.26000977 0.75634766
vt 0.22070312 0.75634766
vt 0.4609375 0.8623047
vt 0.45214844 0.8623047
vt 0.45214844 0.86816406
vt 0.4609375 0.86816406
vt 0.15161133 0.74316406
vt 0.1743164 0.74316406
vt 0.1743164 0.7373047
vt 0.15161133 0.7373047
vt 0.1907959 0.76220703
vt 0.22070312 0.76220703
vt 0.22070312 0.75634766
vt 0.1907959 0.75634766
vt 0.45214844 0.8623047
vt 0.44604492 0.8623047
vt 0.44604492 0.86816406
vt 0.45214844 0.86816406
vt 0.1116333 0.74316406
vt 0.15161133 0.74316406
vt 0.15161133 0.7373047
vt 0.1116333 0.7373047
vt 0.18164062 0.76220703
vt 0.1907959 0.76220703
vt 0.1907959 0.75634766
vt 0.18164062 0.75634766
vt 0.44604492 0.8623047
vt 0.43286133 0.8623047
vt 0.43286133 0.86816406
vt 0.44604492 0.86816406
vt 0.103881836 0.74316406
vt 0.1116333 0.74316406
vt 0.1116333 0.7373047
vt 0.103881836 0.7373047
vt 0.17480469 0.76220703
vt 0.18164062 0.76220703
vt 0.18164062 0.75634766
vt 0.17480469 0.75634766
vt 0.43286133 0.8623047
vt 0.4255371 0.8623047
vt 0.4255371 0.86816406
vt 0.43286133 0.86816406
vt 0.07556152 0.74316406
vt 0.103881836 0.74316406
vt 0.103881836 0.7373047
vt 0.07556152 0.7373047
vt 0.16369629 0.76220703
vt 0.17480469 0.76220703
vt 0.17480469 0.75634766
vt 0.16369629 0.75634766
vt 0.05706787 0.74316406
vt 0.07556152 0.74316406
vt 0.07556152 0.7373047
vt 0.05706787 0.7373047
vt 0.13244629 0.76220703
vt 0.16369629 0.76220703
vt 0.16369629 0.75634766
vt 0.13244629 0.75634766
vt 0.05307007 0.74316406
vt 0.05706787 0.74316406
vt 0.05706787 0.7373047
vt 0.05307007 0.7373047
vt 0.097351074 0.76220703
vt 0.13244629 0.76220703
vt 0.13244629 0.75634766
vt 0.097351074 0.75634766
vt 0.03543091 0.74316406
vt 0.05307007 0.74316406
vt 0.05307007 0.7373047
vt 0.03543091 0.7373047
vt 0.09259033 0.76220703
vt 0.097351074 0.76220703
vt 0.097351074 0.75634766
vt 0.09259033 0.75634766
vt 0.023590088 0.74316406
vt 0.03543091 0.74316406
vt 0.03543091 0.7373047
vt 0.023590088 0.7373047
vt 0.06842041 0.76220703
vt 0.09259033 0.76220703
vt 0.09259033 0.75634766
vt 0.06842041 0.75634766
vt 0.7885742 0.90966797
vt 0.80810547 0.90966797
vt 0.80810547 0.9038086
vt 0.7885742 0.9038086
vt 0.04748535 0.76220703
vt 0.06842041 0.76220703
vt 0.06842041 0.75634766
vt 0.04748535 0.75634766
vt 0.77197266 0.90966797
vt 0.7885742 0.90966797
vt 0.7885742 0.9038086
vt 0.77197266 0.9038086
vt 0.023590088 0.76220703
vt 0.04748535 0.76220703
vt 0.04748535 0.75634766
vt 0.023590088 0.75634766
vt 0.75390625 0.90966797
vt 0.77197266 0.90966797
vt 0.77197266 0.9038086
vt 0.75390625 0.9038086
vt 0.5776367 0.86035156
vt 0.55615234 0.86035156
vt 0.55615234 0.8666992
vt 0.5776367 0.8666992
vt 0.7480469 0.90966797
vt 0.75390625 0.90966797
vt 0.75390625 0.9038086
vt 0.7480469 0.9038086
vt 0.6230469 0.86035156
vt 0.5776367 0.86035156
vt 0.5776367 0.8666992
vt 0.6230469 0.8666992
vt 0.73779297 0.90966797
vt 0.7480469 0.90966797
vt 0.7480469 0.9038086
vt 0.73779297 0.9038086
vt 0.69677734 0.86035156
vt 0.6230469 0.86035156
vt 0.6230469 0.8666992
vt 0.69677734 0.8666992
vt 0.7324219 0.90966797
vt 0.73779297 0.90966797
vt 0.73779297 0.9038086
vt 0.7324219 0.9038086
vt 0.70947266 0.86035156
vt 0.69677734 0.86035156
vt 0.69677734 0.8666992
vt 0.70947266 0.8666992
vt 0.70996094 0.90966797
vt 0.7324219 0.90966797
vt 0.7324219 0.9038086
vt 0.70996094 0.9038086
vt 0.7138672 0.86035156
vt 0.70947266 0.86035156
vt 0.70947266 0.8666992
vt 0.7138672 0.8666992
vt 0.6958008 0.90966797
vt 0.70996094 0.90966797
vt 0.70996094 0.9038086
vt 0.6958008 0.9038086
vt 0.7495117 0.86035156
vt 0.7138672 0.86035156
vt 0.7138672 0.8666992
vt 0.7495117 0.8666992
vt 0.69140625 0.90966797
vt 0.6958008 0.90966797
vt 0.6958008 0.9038086
vt 0.69140625 0.9038086
vt 0.78808594 0.86035156
vt 0.7495117 0.86035156
vt 0.7495117 0.8666992
vt 0.78808594 0.8666992
vt 0.6870117 0.90966797
vt 0.69140625 0.90966797
vt 0.69140625 0.9038086
vt 0.6870117 0.9038086
vt 0.80029297 0.86035156
vt 0.78808594 0.86035156
vt 0.78808594 0.8666992
vt 0.80029297 0.8666992
vt 0.5961914 0.90966797
vt 0.6870117 0.90966797
vt 0.6870117 0.9038086
vt 0.5961914 0.9038086
vt 0.8066406 0.86035156
vt 0.80029297 0.86035156
vt 0.80029297 0.8666992
vt 0.8066406 0.8666992
vt 0.5390625 0.8623047
vt 0.52783203 0.8623047
vt 0.52783203 0.86816406
vt 0.5390625 0.86816406
vt 0.81152344 0.86035156
vt 0.8066406 0.86035156
vt 0.8066406 0.8666992
vt 0.81152344 0.8666992
vt 0.52783203 0.8623047
vt 0.5136719 0.8623047
vt 0.5136719 0.86816406
vt 0.52783203 0.86816406
vt 0.8154297 0.86035156
vt 0.81152344 0.86035156
vt 0.81152344 0.8666992
vt 0.8154297 0.8666992
vt 0.5136719 0.8623047
vt 0.5 0.8623047
vt 0.5 0.86816406
vt 0.5136719 0.86816406
vt 0.8442383 0.86035156
vt 0.8154297 0.86035156
vt 0.8154297 0.8666992
vt 0.8442383 0.8666992
vt 0.5 0.8623047
vt 0.49291992 0.8623047
vt 0.49291992 0.86816406
vt 0.5 0.86816406
vt 0.9189453 0.86035156
vt 0.8442383 0.86035156
vt 0.8442383 0.8666992
vt 0.9189453 0.8666992
vt 0.49291992 0.8623047
vt 0.4855957 0.8623047
vt 0.4855957 0.86816406
vt 0.49291992 0.86816406
vt 0.94091797 0.86035156
vt 0.9189453 0.86035156
vt 0.9189453 0.8666992
vt 0.94091797 0.8666992
vt 0.45336914 0.90966797
vt 0.5961914 0.90966797
vt 0.5961914 0.9038086
vt 0.45336914 0.9038086
vn -0 1 0
vn -0 1 0
vn -0 1 0
vn -0 1 0
vn -0 1 0
vn -0 1 0
vn -0 1 0
vn -0 1 0
vn -0 1 0
vn -0 1 0
vn -0 1 0
vn -0 1 0
vn -0 1 0
vn -0 1 0
vn -0 1 0
vn -0 1 0
vn -0 1 0
vn -0 1 0
vn -0 1 0
vn -0 1 0
vn -0 1 0
vn -0 1 0
vn -0 1 0
vn -0 1 0
vn -0 1 0
vn -0 1 0
vn -0 1 0
vn -0 1 0
vn -0 1 0
vn -0 1 0
vn -0 1 0
vn -0 1 0
vn -0 1 0
vn -0 1 0
vn -0 1 0
vn -0 1 0
vn -0 1 0
vn -0 1 0
vn -0 1 0
vn -0 1 0
vn -0 1 0
vn -0 1 0
vn -0 1 0
vn -0 1 0
vn -0 1 0
vn -0 1 0
vn -0 1 0
vn -0 1 0
vn -0 1 0
vn -0 1 0
vn -0 1 0
vn -0 1 0
vn -0 1 0
vn -0 1 0
vn -0 1 0
vn -0 1 0
vn -0 1 0
vn -0 1 0
vn -0 1 0
vn -0 -1 0
vn -0 -1 0
vn -0 -1 0
vn -0 -1 0
vn -0 -1 0
vn -0 -1 0
vn -0 -1 0
vn -0 -1 0
vn -0 -1 0
vn -0 -1 1.1920929E-07
vn -0 -1 0
vn -0 -1 0
vn -0 -1 0
vn -0 -1 0
vn -0 -1 0
vn -0 -1 0
vn 2.3841858E-07 -1 0
vn -0 -1 1.1920929E-07
vn -0 -1 1.1920929E-07
vn 1.1920929E-07 -1 0
vn -0 -1 0
vn -0 -1 2.3841858E-07
vn -0 -1 0
vn -0 -1 0
vn -0 -1 0
vn -0 -1 0
vn -0 -1 0
vn -0 -1 0
vn -0 -1 0
vn -0 -1 0
vn -0 -1 0
vn -0 -1 0
vn -0 -1 0
vn -0 -1 0
vn -0 -1 0
vn -0 -1 0
vn -0 -1 0
vn -0 -1 0
vn -0 -1 0
vn -0 -1 1.1920929E-07
vn -0 -1 0
vn 2.9802322E-07 -1 1.1920929E-07
vn -0 -1 0
vn -0 -1 0
vn -0 -1 0
vn -0 -1 0
vn -0 -1 0
vn -0 -1 0
vn -0 -1 0
vn -0 -1 0
vn -0 -1 0
vn -0 -1 0
vn -0 -1 0
vn 2.3841858E-07 -1 -1.7881393E-07
vn -1.7881393E-07 -1 0
vn -0 -1 1.1920929E-07
vn -0 -1 1.1920929E-07
vn -0 -1 1.1920929E-07
vn -0 -1 0
vn -0.99560547 0 0.09552002
vn -0.99560547 0 0.09552002
vn -0.99560547 0 0.09552002
vn -0.99560547 0 0.09552002
vn -0.9980469 0 -0.060638428
vn -0.9980469 0 -0.060638428
vn -0.9980469 0 -0.060638428
vn -0.9980469 0 -0.060638428
vn 0.69433594 0 -0.71972656
vn 0.69433594 0 -0.71972656
vn 0.69433594 0 -0.71972656
vn 0.69433594 0 -0.71972656
vn -0.33447266 0 -0.9423828
vn -0.33447266 0 -0.9423828
vn -0.33447266 0 -0.9423828
vn -0.33447266 0 -0.9423828
vn -1 0 0.0032844543
vn -1 0 0.0032844543
vn -1 0 0.0032844543
vn -1 0 0.0032844543
vn 0.9926758 0 -0.11993408
vn 0.9926758 0 -0.11993408
vn 0.9926758 0 -0.11993408
vn 0.9926758 0 -0.11993408
vn 0.57421875 0 -0.81884766
vn 0.57421875 0 -0.81884766
vn 0.57421875 0 -0.81884766
vn 0.57421875 0 -0.81884766
vn -0.9501953 0 0.31152344
vn -0.9501953 0 0.31152344
vn -0.9501953 0 0.31152344
vn -0.9501953 0 0.31152344
vn 0.9995117 0 0.025131226
vn 0.9995117 0 0.025131226
vn 0.9995117 0 0.025131226
vn 0.9995117 0 0.025131226
vn 0.092285156 0 -0.99560547
vn 0.092285156 0 -0.99560547
vn 0.092285156 0 -0.99560547
vn 0.092285156 0 -0.99560547
vn -1 0 -0.0045814514
vn -1 0 -0.0045814514
vn -1 0 -0.0045814514
vn -1 0 -0.0045814514
vn 0.45532227 0 0.8901367
vn 0.45532227 0 0.8901367
vn 0.45532227 0 0.8901367
vn 0.45532227 0 0.8901367
vn 0.9995117 0 -0.024673462
vn 0.9995117 0 -0.024673462
vn 0.9995117 0 -0.024673462
vn 0.9995117 0 -0.024673462
vn -0.92285156 0 0.3852539
vn -0.92285156 0 0.3852539
vn -0.92285156 0 0.3852539
vn -0.92285156 0 0.3852539
vn -0.1373291 0 0.99072266
vn -0.1373291 0 0.99072266
vn -0.1373291 0 0.99072266
vn -0.1373291 0 0.99072266
vn 0.78515625 0 -0.6191406
vn 0.78515625 0 -0.6191406
vn 0.78515625 0 -0.6191406
vn 0.78515625 0 -0.6191406
vn -0.9213867 0 -0.38842773
vn -0.9213867 0 -0.38842773
vn -0.9213867 0 -0.38842773
vn -0.9213867 0 -0.38842773
vn 0.40600586 0 0.9140625
vn 0.40600586 0 0.9140625
vn 0.40600586 0 0.9140625
vn 0.40600586 0 0.9140625
vn -0.9892578 0 0.14770508
vn -0.9892578 0 0.14770508
vn -0.9892578 0 0.14770508
vn -0.9892578 0 0.14770508
vn 0.9604492 0 0.27783203
vn 0.9604492 0 0.27783203
vn 0.9604492 0 0.27783203
vn 0.9604492 0 0.27783203
vn -0.45629883 0 -0.88964844
vn -0.45629883 0 -0.88964844
vn -0.45629883 0 -0.88964844
vn -0.45629883 0 -0.88964844
vn 0.98876953 0 -0.15039062
vn 0.98876953 0 -0.15039062
vn 0.98876953 0 -0.15039062
vn 0.98876953 0 -0.15039062
vn -0.9995117 0 0.036315918
vn -0.9995117 -2.3841858E-07 0.036315918
vn -0.9995117 0 0.036315918
vn -0.9995117 0 0.036315918
vn 0.5996094 0 -0.80029297
vn 0.5996094 0 -0.80029297
vn 0.5996094 0 -0.80029297
vn 0.5996094 0 -0.80029297
vn -0.72216797 0 -0.69140625
vn -0.72216797 0 -0.69140625
vn -0.72216797 0 -0.69140625
vn -0.72216797 0 -0.69140625
vn 0.9501953 0 -0.31152344
vn 0.9501953 0 -0.31152344
vn 0.9501953 0 -0.31152344
vn 0.9501953 0 -0.31152344
vn -0.17443848 0 -0.9848633
vn -0.17443848 0 -0.9848633
vn -0.17443848 0 -0.9848633
vn -0.17443848 0 -0.9848633
vn 0.7753906 0 -0.63134766
vn 0.7753906 0 -0.63134766
vn 0.7753906 0 -0.63134766
vn 0.7753906 0 -0.63134766
vn 0.6953125 0 -0.7182617
vn 0.6953125 0 -0.7182617
vn 0.6953125 0 -0.7182617
vn 0.6953125 0 -0.7182617
vn 0.9975586 0 0.06854248
vn 0.9975586 0 0.06854248
vn 0.9975586 0 0.06854248
vn 0.9975586 0 0.06854248
vn 0.3623047 0 -0.9321289
vn 0.3623047 0 -0.9321289
vn 0.3623047 0 -0.9321289
vn 0.3623047 0 -0.9321289
vn 0.38989258 0 0.92089844
vn 0.38989258 0 0.92089844
vn 0.38989258 0 0.92089844
vn 0.38989258 0 0.92089844
vn 0.70703125 0 -0.70751953
vn 0.70703125 0 -0.70751953
vn 0.70703125 0 -0.70751953
vn 0.70703125 0 -0.70751953
vn 0.029144287 0 0.9995117
vn 0.029144287 0 0.9995117
vn 0.029144287 0 0.9995117
vn 0.029144287 0 0.9995117
vn 0.2142334 0 -0.9765625
vn 0.2142334 0 -0.9765625
vn 0.2142334 0 -0.9765625
vn 0.2142334 0 -0.9765625
vn 0.09338379 0 0.99560547
vn 0.09338379 0 0.99560547
vn 0.09338379 0 0.99560547
vn 0.09338379 0 0.99560547
vn -0.61621094 0 -0.78759766
vn -0.61621094 0 -0.78759766
vn -0.61621094 0 -0.78759766
vn -0.61621094 0 -0.78759766
vn -0.18395996 0 0.98291016
vn -0.18395996 0 0.98291016
vn -0.18395996 0 0.98291016
vn -0.18395996 0 0.98291016
vn -0.15063477 0 -0.98876953
vn -0.15063477 0 -0.98876953
vn -0.15063477 0 -0.98876953
vn -0.15063477 0 -0.98876953
vn 0.38598633 0 0.9223633
vn 0.38598633 0 0.9223633
vn 0.38598633 0 0.9223633
vn 0.38598633 0 0.9223633
vn -0.69433594 0 -0.71972656
vn -0.69433594 0 -0.71972656
vn -0.69433594 0 -0.71972656
vn -0.69433594 0 -0.71972656
vn -0.34057617 0 0.9404297
vn -0.34057617 0 0.9404297
vn -0.34057617 0 0.9404297
vn -0.34057617 0 0.9404297
vn -0.9951172 0 -0.09954834
vn -0.9951172 0 -0.09954834
vn -0.9951172 0 -0.09954834
vn -0.9951172 0 -0.09954834
vn -0.044555664 0 0.99902344
vn -0.044555664 0 0.99902344
vn -0.044555664 0 0.99902344
vn -0.044555664 0 0.99902344
vn -0.7001953 0 -0.7138672
vn -0.7001953 0 -0.7138672
vn -0.7001953 0 -0.7138672
vn -0.7001953 0 -0.7138672
vn 0.6879883 0 0.72558594
vn 0.6879883 0 0.72558594
vn 0.6879883 0 0.72558594
vn 0.6879883 0 0.72558594
vn 0.027633667 0 -0.9995117
vn 0.027633667 0 -0.9995117
vn 0.027633667 0 -0.9995117
vn 0.027633667 0 -0.9995117
vn -0.44726562 0 0.89453125
vn -0.44726562 0 0.89453125
vn -0.44726562 0 0.89453125
vn -0.44726562 0 0.89453125
vn 0.47802734 0 0.87841797
vn 0.47802734 0 0.87841797
vn 0.47802734 0 0.87841797
vn 0.47802734 0 0.87841797
vn 0.076538086 0 0.9970703
vn 0.076538086 0 0.9970703
vn 0.076538086 0 0.9970703
vn 0.076538086 0 0.9970703
vn 0.31396484 0 0.94921875
vn 0.31396484 0 0.94921875
vn 0.31396484 0 0.94921875
vn 0.31396484 0 0.94921875
vn -0.98535156 0 0.17138672
vn -0.98535156 -2.3841858E-07 0.17138672
vn -0.98535156 0 0.17138672
vn -0.98535156 0 0.17138672
vn -0.52490234 0 0.8510742
vn -0.52490234 0 0.8510742
vn -0.52490234 0 0.8510742
vn -0.52490234 0 0.8510742
vn 0.18249512 0 0.98339844
vn 0.18249512 0 0.98339844
vn 0.18249512 0 0.98339844
vn 0.18249512 0 0.98339844
vn -0.9970703 0 0.0769043
vn -0.9970703 -1.7881393E-07 0.0769043
vn -0.9970703 0 0.0769043
vn -0.9970703 0 0.0769043
vn -0.11444092 0 0.99365234
vn -0.11444092 0 0.99365234
vn -0.11444092 0 0.99365234
vn -0.11444092 0 0.99365234
vn -0.71484375 0 -0.69970703
vn -0.71484375 0 -0.69970703
vn -0.71484375 0 -0.69970703
vn -0.71484375 0 -0.69970703
vn -0.6298828 0 0.77685547
vn -0.6298828 0 0.77685547
vn -0.6298828 0 0.77685547
vn -0.6298828 0 0.77685547
vn -0.064575195 0 -0.9980469
vn -0.064575195 0 -0.9980469
vn -0.064575195 0 -0.9980469
vn -0.064575195 0 -0.9980469
g ID_Swansea_0
f 3/3/3 2/2/2 1/1/1
f 4/4/4 1/1/1 2/2/2
f 5/5/5 1/1/1 4/4/4
f 1/1/1 5/5/5 6/6/6
f 6/6/6 7/7/7 1/1/1
f 6/6/6 8/8/8 7/7/7
f 8/8/8 9/9/9 7/7/7
f 9/9/9 8/8/8 10/10/10
f 11/11/11 6/6/6 5/5/5
f 11/11/11 5/5/5 12/12/12
f 12/12/12 5/5/5 13/13/13
f 14/14/14 11/11/11 12/12/12
f 15/15/15 6/6/6 11/11/11
f 6/6/6 15/15/15 16/16/16
f 17/17/17 6/6/6 16/16/16
f 8/8/8 6/6/6 18/18/18
f 16/16/16 15/15/15 19/19/19
f 20/20/20 16/16/16 19/19/19
f 15/15/15 21/21/21 19/19/19
f 22/22/22 19/19/19 21/21/21
f 23/23/23 19/19/19 22/22/22
f 24/24/24 23/23/23 22/22/22
f 23/23/23 24/24/24 25/25/25
f 23/23/23 25/25/25 26/26/26
f 27/27/27 23/23/23 26/26/26
f 25/25/25 28/28/28 26/26/26
f 28/28/28 29/29/29 26/26/26
f 28/28/28 25/25/25 30/30/30
f 26/26/26 29/29/29 31/31/31
f 32/32/32 30/30/30 25/25/25
f 30/30/30 32/32/32 33/33/33
f 33/33/33 32/32/32 34/34/34
f 29/29/29 35/35/35 31/31/31
f 36/36/36 31/31/31 35/35/35
f 37/37/37 36/36/36 35/35/35
f 36/36/36 37/37/37 38/38/38
f 18/18/18 36/36/36 38/38/38
f 39/39/39 18/18/18 38/38/38
f 39/39/39 8/8/8 18/18/18
f 40/40/40 8/8/8 39/39/39
f 41/41/41 39/39/39 38/38/38
f 42/42/42 41/41/41 38/38/38
f 43/43/43 41/41/41 42/42/42
f 37/37/37 44/44/44 38/38/38
f 44/44/44 37/37/37 45/45/45
f 46/46/46 44/44/44 45/45/45
f 47/47/47 45/45/45 37/37/37
f 45/45/45 47/47/47 48/48/48
f 48/48/48 47/47/47 49/49/49
f 50/50/50 10/10/10 8/8/8
f 51/51/51 10/10/10 50/50/50
f 52/52/52 10/10/10 51/51/51
f 51/51/51 50/50/50 53/53/53
f 54/54/54 53/53/53 50/50/50
f 55/55/55 51/51/51 53/53/53
f 56/56/56 51/51/51 55/55/55
f 57/57/57 55/55/55 53/53/53
f 58/58/58 57/57/57 53/53/53
f 59/59/59 55/55/55 57/57/57
f 62/62/62 61/61/61 60/60/60
f 60/60/60 61/61/61 63/63/63
f 63/63/63 61/61/61 64/64/64
f 65/65/65 64/64/64 61/61/61
f 61/61/61 66/66/66 65/65/65
f 66/66/66 67/67/67 65/65/65
f 68/68/68 67/67/67 66/66/66
f 69/69/69 67/67/67 68/68/68
f 67/67/67 69/69/69 70/70/70
f 71/71/71 70/70/70 69/69/69
f 72/72/72 71/71/71 69/69/69
f 73/73/73 70/70/70 71/71/71
f 74/74/74 70/70/70 73/73/73
f 75/75/75 73/73/73 71/71/71
f 76/76/76 75/75/75 71/71/71
f 73/73/73 75/75/75 77/77/77
f 78/78/78 73/73/73 77/77/77
f 79/79/79 77/77/77 75/75/75
f 65/65/65 67/67/67 80/80/80
f 81/81/81 80/80/80 67/67/67
f 82/82/82 65/65/65 80/80/80
f 82/82/82 80/80/80 83/83/83
f 84/84/84 83/83/83 80/80/80
f 85/85/85 82/82/82 83/83/83
f 83/83/83 84/84/84 86/86/86
f 86/86/86 84/84/84 87/87/87
f 83/83/83 88/88/88 85/85/85
f 88/88/88 89/89/89 85/85/85
f 89/89/89 90/90/90 85/85/85
f 90/90/90 91/91/91 85/85/85
f 91/91/91 90/90/90 92/92/92
f 93/93/93 91/91/91 92/92/92
f 94/94/94 93/93/93 92/92/92
f 95/95/95 89/89/89 88/88/88
f 96/96/96 95/95/95 88/88/88
f 95/95/95 97/97/97 89/89/89
f 98/98/98 97/97/97 95/95/95
f 99/99/99 97/97/97 98/98/98
f 93/93/93 94/94/94 100/100/100
f 101/101/101 93/93/93 100/100/100
f 94/94/94 102/102/102 100/100/100
f 103/103/103 102/102/102 94/94/94
f 104/104/104 100/100/100 102/102/102
f 102/102/102 103/103/103 105/105/105
f 106/106/106 105/105/105 103/103/103
f 107/107/107 105/105/105 106/106/106
f 100/100/100 104/104/104 108/108/108
f 104/104/104 109/109/109 108/108/108
f 110/110/110 108/108/108 109/109/109
f 108/108/108 110/110/110 111/111/111
f 112/112/112 108/108/108 111/111/111
f 113/113/113 108/108/108 112/112/112
f 111/111/111 65/65/65 112/112/112
f 114/114/114 112/112/112 65/65/65
f 115/115/115 65/65/65 111/111/111
f 64/64/64 65/65/65 115/115/115
f 116/116/116 64/64/64 115/115/115
f 117/117/117 116/116/116 115/115/115
f 118/118/118 64/64/64 116/116/116
f 121/121/121 120/120/120 119/119/119
f 122/122/122 121/121/121 119/119/119
f 125/125/125 124/124/124 123/123/123
f 126/126/126 125/125/125 123/123/123
f 129/129/129 128/128/128 127/127/127
f 130/130/130 129/129/129 127/127/127
f 133/133/133 132/132/132 131/131/131
f 134/134/134 133/133/133 131/131/131
f 137/137/137 136/136/136 135/135/135
f 138/138/138 137/137/137 135/135/135
f 141/141/141 140/140/140 139/139/139
f 142/142/142 141/141/141 139/139/139
f 145/145/145 144/144/144 143/143/143
f 146/146/146 145/145/145 143/143/143
f 149/149/149 148/148/148 147/147/147
f 150/150/150 149/149/149 147/147/147
f 153/153/153 152/152/152 151/151/151
f 154/154/154 153/153/153 151/151/151
f 157/157/157 156/156/156 155/155/155
f 158/158/158 157/157/157 155/155/155
f 161/161/161 160/160/160 159/159/159
f 162/162/162 161/161/161 159/159/159
f 165/165/165 164/164/164 163/163/163
f 166/166/166 165/165/165 163/163/163
f 169/169/169 168/168/168 167/167/167
f 170/170/170 169/169/169 167/167/167
f 173/173/173 172/172/172 171/171/171
f 174/174/174 173/173/173 171/171/171
f 177/177/177 176/176/176 175/175/175
f 178/178/178 177/177/177 175/175/175
f 181/181/181 180/180/180 179/179/179
f 182/182/182 181/181/181 179/179/179
f 185/185/185 184/184/184 183/183/183
f 186/186/186 185/185/185 183/183/183
f 189/189/189 188/188/188 187/187/187
f 190/190/190 189/189/189 187/187/187
f 193/193/193 192/192/192 191/191/191
f 194/194/194 193/193/193 191/191/191
f 197/197/197 196/196/196 195/195/195
f 198/198/198 197/197/197 195/195/195
f 201/201/201 200/200/200 199/199/199
f 202/202/202 201/201/201 199/199/199
f 205/205/205 204/204/204 203/203/203
f 206/206/206 205/205/205 203/203/203
f 209/209/209 208/208/208 207/207/207
f 210/210/210 209/209/209 207/207/207
f 213/213/213 212/212/212 211/211/211
f 214/214/214 213/213/213 211/211/211
f 217/217/217 216/216/216 215/215/215
f 218/218/218 217/217/217 215/215/215
f 221/221/221 220/220/220 219/219/219
f 222/222/222 221/221/221 219/219/219
f 225/225/225 224/224/224 223/223/223
f 226/226/226 225/225/225 223/223/223
f 229/229/229 228/228/228 227/227/227
f 230/230/230 229/229/229 227/227/227
f 233/233/233 232/232/232 231/231/231
f 234/234/234 233/233/233 231/231/231
f 237/237/237 236/236/236 235/235/235
f 238/238/238 237/237/237 235/235/235
f 241/241/241 240/240/240 239/239/239
f 242/242/242 241/241/241 239/239/239
f 245/245/245 244/244/244 243/243/243
f 246/246/246 245/245/245 243/243/243
f 249/249/249 248/248/248 247/247/247
f 250/250/250 249/249/249 247/247/247
f 253/253/253 252/252/252 251/251/251
f 254/254/254 253/253/253 251/251/251
f 257/257/257 256/256/256 255/255/255
f 258/258/258 257/257/257 255/255/255
f 261/261/261 260/260/260 259/259/259
f 262/262/262 261/261/261 259/259/259
f 265/265/265 264/264/264 263/263/263
f 266/266/266 265/265/265 263/263/263
f 269/269/269 268/268/268 267/267/267
f 270/270/270 269/269/269 267/267/267
f 273/273/273 272/272/272 271/271/271
f 274/274/274 273/273/273 271/271/271
f 277/277/277 276/276/276 275/275/275
f 278/278/278 277/277/277 275/275/275
f 281/281/281 280/280/280 279/279/279
f 282/282/282 281/281/281 279/279/279
f 285/285/285 284/284/284 283/283/283
f 286/286/286 285/285/285 283/283/283
f 289/289/289 288/288/288 287/287/287
f 290/290/290 289/289/289 287/287/287
f 293/293/293 292/292/292 291/291/291
f 294/294/294 293/293/293 291/291/291
f 297/297/297 296/296/296 295/295/295
f 298/298/298 297/297/297 295/295/295
f 301/301/301 300/300/300 299/299/299
f 302/302/302 301/301/301 299/299/299
f 305/305/305 304/304/304 303/303/303
f 306/306/306 305/305/305 303/303/303
f 309/309/309 308/308/308 307/307/307
f 310/310/310 309/309/309 307/307/307
f 313/313/313 312/312/312 311/311/311
f 314/314/314 313/313/313 311/311/311
f 317/317/317 316/316/316 315/315/315
f 318/318/318 317/317/317 315/315/315
f 321/321/321 320/320/320 319/319/319
f 322/322/322 321/321/321 319/319/319
f 325/325/325 324/324/324 323/323/323
f 326/326/326 325/325/325 323/323/323
f 329/329/329 328/328/328 327/327/327
f 330/330/330 329/329/329 327/327/327
f 333/333/333 332/332/332 331/331/331
f 334/334/334 333/333/333 331/331/331
f 337/337/337 336/336/336 335/335/335
f 338/338/338 337/337/337 335/335/335
f 341/341/341 340/340/340 339/339/339
f 342/342/342 341/341/341 339/339/339
f 345/345/345 344/344/344 343/343/343
f 346/346/346 345/345/345 343/343/343
f 349/349/349 348/348/348 347/347/347
f 350/350/350 349/349/349 347/347/347
f 353/353/353 352/352/352 351/351/351
f 354/354/354 353/353/353 351/351/351
